ffmpeg started on 2025-06-19 at 09:36:37
Report written to "D:\Convert\FFMetrics\reports\psnr_report-6.txt"
Log level: 32
Command line:
ffmpeg -hide_banner -nostdin -i "G:\\\xc0\xed\xe8\xec\xe5\\[\xd2\xee\xef-4]\\Fate\\\xc4\xee\xef\xee\xeb\xed\xe5\xed\xe8\xe5 - \xcf\xee\xf1\xeb\xe5\xe4\xed\xe8\xe9 \xe2\xfb\xe7\xee\xe2 \xed\xe0 \xe1\xe8\xf1\\Fate_Extra_Last_Encore_[02]_[AniLibria_TV]_[HDTV-Rip_720p]_HEVC.mkv" -i "G:\\\xc0\xed\xe8\xec\xe5\\[\xd2\xee\xef-4]\\Fate\\\xc4\xee\xef\xee\xeb\xed\xe5\xed\xe8\xe5 - \xcf\xee\xf1\xeb\xe5\xe4\xed\xe8\xe9 \xe2\xfb\xe7\xee\xe2 \xed\xe0 \xe1\xe8\xf1\\Fate_Extra_Last_Encore_[02]_[AniLibria_TV]_[HDTV-Rip_720p].mkv" -lavfi "[0:v]settb=AVTB,setpts=PTS-STARTPTS,format=pix_fmts=yuv420p10,fps=24000/1001,scale=1280:720:flags=bicubic[main];[1:v]settb=AVTB,setpts=PTS-STARTPTS,format=pix_fmts=yuv420p,fps=24000/1001,scale=1280:720:flags=bicubic[ref];[main][ref]psnr=eof_action=endall:stats_file='D\\:/Convert/FFMetrics/logs/psnr_logfile-6.txt'" -f null -
Input #0, matroska,webm, from 'G:\Аниме\[Топ-4]\Fate\Дополнение - Последний вызов на бис\Fate_Extra_Last_Encore_[02]_[AniLibria_TV]_[HDTV-Rip_720p]_HEVC.mkv':
  Metadata:
    ENCODER         : Lavf61.7.100
  Duration: 00:24:00.04, start: -0.021000, bitrate: 1300 kb/s
  Stream #0:0(jpn): Video: hevc (Main 10), yuv420p10le(tv, bt709, progressive), 1280x720 [SAR 1:1 DAR 16:9], 23.81 fps, 23.81 tbr, 1k tbn (default)
      Metadata:
        ENCODER         : Lavc61.19.100 libx265
        BPS             : 1102367
        DURATION        : 00:23:59.970000000
        NUMBER_OF_FRAMES: 34523
        NUMBER_OF_BYTES : 198421936
        _STATISTICS_WRITING_APP: mkvpropedit v66.0.0 ('Josie') 64-bit
        _STATISTICS_WRITING_DATE_UTC: 2025-06-17 11:45:59
        _STATISTICS_TAGS: BPS DURATION NUMBER_OF_FRAMES NUMBER_OF_BYTES
  Stream #0:1(rus): Audio: aac (LC), 48000 Hz, stereo, fltp (default)
      Metadata:
        title           : Ados Amikiri Anzen Hekomi Silv
        ENCODER         : Lavc61.19.100 aac
        BPS             : 194074
        DURATION        : 00:24:00.021000000
        NUMBER_OF_FRAMES: 67502
        NUMBER_OF_BYTES : 34933997
        _STATISTICS_WRITING_APP: mkvpropedit v66.0.0 ('Josie') 64-bit
        _STATISTICS_WRITING_DATE_UTC: 2025-06-17 11:45:59
        _STATISTICS_TAGS: BPS DURATION NUMBER_OF_FRAMES NUMBER_OF_BYTES
  Stream #0:2(rus): Subtitle: ass (ssa) (default) (forced)
      Metadata:
        title           : Надписи
        BPS             : 16
        DURATION        : 00:21:27.980000000
        NUMBER_OF_FRAMES: 14
        NUMBER_OF_BYTES : 2610
        _STATISTICS_WRITING_APP: mkvpropedit v66.0.0 ('Josie') 64-bit
        _STATISTICS_WRITING_DATE_UTC: 2025-06-17 11:45:59
        _STATISTICS_TAGS: BPS DURATION NUMBER_OF_FRAMES NUMBER_OF_BYTES
  Stream #0:3(rus): Subtitle: ass (ssa)
      Metadata:
        title           : Полные
        BPS             : 154
        DURATION        : 00:22:15.540000000
        NUMBER_OF_FRAMES: 334
        NUMBER_OF_BYTES : 25763
        _STATISTICS_WRITING_APP: mkvpropedit v66.0.0 ('Josie') 64-bit
        _STATISTICS_WRITING_DATE_UTC: 2025-06-17 11:45:59
        _STATISTICS_TAGS: BPS DURATION NUMBER_OF_FRAMES NUMBER_OF_BYTES
Input #1, matroska,webm, from 'G:\Аниме\[Топ-4]\Fate\Дополнение - Последний вызов на бис\Fate_Extra_Last_Encore_[02]_[AniLibria_TV]_[HDTV-Rip_720p].mkv':
  Metadata:
    encoder         : libebml v1.4.2 + libmatroska v1.6.4
    creation_time   : 2024-12-27T09:56:15.000000Z
  Duration: 00:24:00.02, start: 0.000000, bitrate: 2723 kb/s
  Stream #1:0(jpn): Video: h264 (Main), yuv420p(tv, bt709, progressive), 1280x720, SAR 1:1 DAR 16:9, 23.81 fps, 23.81 tbr, 1k tbn (default)
      Metadata:
        BPS             : 2517736
        DURATION        : 00:23:59.953000000
        NUMBER_OF_FRAMES: 34523
        NUMBER_OF_BYTES : 453177823
        _STATISTICS_WRITING_APP: mkvmerge v66.0.0 ('Josie') 64-bit
        _STATISTICS_WRITING_DATE_UTC: 2024-12-27 09:56:15
        _STATISTICS_TAGS: BPS DURATION NUMBER_OF_FRAMES NUMBER_OF_BYTES
  Stream #1:1(rus): Audio: aac (LC), 48000 Hz, stereo, fltp (default)
      Metadata:
        title           : Ados Amikiri Anzen Hekomi Silv
        BPS             : 192093
        DURATION        : 00:24:00.021000000
        NUMBER_OF_FRAMES: 67501
        NUMBER_OF_BYTES : 34577287
        _STATISTICS_WRITING_APP: mkvmerge v66.0.0 ('Josie') 64-bit
        _STATISTICS_WRITING_DATE_UTC: 2024-12-27 09:56:15
        _STATISTICS_TAGS: BPS DURATION NUMBER_OF_FRAMES NUMBER_OF_BYTES
  Stream #1:2(rus): Subtitle: ass (ssa) (default) (forced)
      Metadata:
        title           : Надписи
        BPS             : 16
        DURATION        : 00:21:27.980000000
        NUMBER_OF_FRAMES: 14
        NUMBER_OF_BYTES : 2610
        _STATISTICS_WRITING_APP: mkvmerge v66.0.0 ('Josie') 64-bit
        _STATISTICS_WRITING_DATE_UTC: 2024-12-27 09:56:15
        _STATISTICS_TAGS: BPS DURATION NUMBER_OF_FRAMES NUMBER_OF_BYTES
  Stream #1:3(rus): Subtitle: ass (ssa)
      Metadata:
        title           : Полные
        BPS             : 154
        DURATION        : 00:22:15.540000000
        NUMBER_OF_FRAMES: 334
        NUMBER_OF_BYTES : 25763
        _STATISTICS_WRITING_APP: mkvmerge v66.0.0 ('Josie') 64-bit
        _STATISTICS_WRITING_DATE_UTC: 2024-12-27 09:56:15
        _STATISTICS_TAGS: BPS DURATION NUMBER_OF_FRAMES NUMBER_OF_BYTES
  Stream #1:4: Attachment: ttf
      Metadata:
        filename        : BwSurcoDEMO-Book.otf
        mimetype        : application/x-truetype-font
  Stream #1:5: Attachment: ttf
      Metadata:
        filename        : BwSurcoDEMO-BookItalic.otf
        mimetype        : application/x-truetype-font
  Stream #1:6: Attachment: ttf
      Metadata:
        filename        : BwSurcoDEMO-Light.otf
        mimetype        : application/x-truetype-font
  Stream #1:7: Attachment: ttf
      Metadata:
        filename        : BwSurcoDEMO-LightItalic.otf
        mimetype        : application/x-truetype-font
  Stream #1:8: Attachment: ttf
      Metadata:
        filename        : BwSurcoDEMO-Medium.otf
        mimetype        : application/x-truetype-font
  Stream #1:9: Attachment: ttf
      Metadata:
        filename        : BwSurcoDEMO-MediumItalic.otf
        mimetype        : application/x-truetype-font
  Stream #1:10: Attachment: ttf
      Metadata:
        filename        : BwSurcoDEMO-Regular.otf
        mimetype        : application/x-truetype-font
  Stream #1:11: Attachment: ttf
      Metadata:
        filename        : BwSurcoDEMO-RegularItalic.otf
        mimetype        : application/x-truetype-font
  Stream #1:12: Attachment: ttf
      Metadata:
        filename        : KozGoPr6N-Medium_0.otf
        mimetype        : application/x-truetype-font
  Stream #1:13: Attachment: ttf
      Metadata:
        filename        : 9511(1).ttf
        mimetype        : application/x-truetype-font
  Stream #1:14: Attachment: ttf
      Metadata:
        filename        : arx.ttf
        mimetype        : application/x-truetype-font
  Stream #1:15: Attachment: ttf
      Metadata:
        filename        : BwSurcoDEMO-Black.otf
        mimetype        : application/x-truetype-font
  Stream #1:16: Attachment: ttf
      Metadata:
        filename        : BwSurcoDEMO-BlackItalic.otf
        mimetype        : application/x-truetype-font
  Stream #1:17: Attachment: ttf
      Metadata:
        filename        : BwSurcoDEMO-Bold.otf
        mimetype        : application/x-truetype-font
  Stream #1:18: Attachment: ttf
      Metadata:
        filename        : BwSurcoDEMO-BoldItalic.otf
        mimetype        : application/x-truetype-font
Stream mapping:
  Stream #0:0 (hevc) -> settb:default
  Stream #1:0 (h264) -> settb:default
  psnr:default -> Stream #0:0 (wrapped_avframe)
  Stream #0:1 -> #0:1 (aac (native) -> pcm_s16le (native))
Output #0, null, to 'pipe:':
  Metadata:
    encoder         : Lavf61.7.100
  Stream #0:0: Video: wrapped_avframe, yuv420p10le(tv, bt709, progressive), 1280x720 [SAR 1:1 DAR 16:9], q=2-31, 200 kb/s, 23.98 fps, 23.98 tbn
      Metadata:
        encoder         : Lavc61.19.100 wrapped_avframe
  Stream #0:1(rus): Audio: pcm_s16le, 48000 Hz, stereo, s16, 1536 kb/s (default)
      Metadata:
        title           : Ados Amikiri Anzen Hekomi Silv
        _STATISTICS_TAGS: BPS DURATION NUMBER_OF_FRAMES NUMBER_OF_BYTES
        BPS             : 194074
        DURATION        : 00:24:00.021000000
        NUMBER_OF_FRAMES: 67502
        NUMBER_OF_BYTES : 34933997
        _STATISTICS_WRITING_APP: mkvpropedit v66.0.0 ('Josie') 64-bit
        _STATISTICS_WRITING_DATE_UTC: 2025-06-17 11:45:59
        encoder         : Lavc61.19.100 pcm_s16le
frame=  330 fps=0.0 q=-0.0 size=N/A time=00:00:13.76 bitrate=N/A speed=27.3x    frame=  653 fps=634 q=-0.0 size=N/A time=00:00:27.23 bitrate=N/A speed=26.5x    frame= 1008 fps=655 q=-0.0 size=N/A time=00:00:42.04 bitrate=N/A speed=27.3x    frame= 1287 fps=624 q=-0.0 size=N/A time=00:00:53.67 bitrate=N/A speed=  26x    frame= 1413 fps=549 q=-0.0 size=N/A time=00:00:58.93 bitrate=N/A speed=22.9x    frame= 1636 fps=529 q=-0.0 size=N/A time=00:01:08.23 bitrate=N/A speed=22.1x    frame= 1818 fps=505 q=-0.0 size=N/A time=00:01:15.82 bitrate=N/A speed=21.1x    frame= 1912 fps=465 q=-0.0 size=N/A time=00:01:19.74 bitrate=N/A speed=19.4x    frame= 2131 fps=459 q=-0.0 size=N/A time=00:01:28.88 bitrate=N/A speed=19.2x    frame= 2214 fps=430 q=-0.0 size=N/A time=00:01:32.34 bitrate=N/A speed=17.9x    frame= 2347 fps=414 q=-0.0 size=N/A time=00:01:37.88 bitrate=N/A speed=17.3x    frame= 2510 fps=406 q=-0.0 size=N/A time=00:01:44.68 bitrate=N/A speed=16.9x    frame= 2521 fps=376 q=-0.0 size=N/A time=00:01:45.14 bitrate=N/A speed=15.7x    frame= 2679 fps=371 q=-0.0 size=N/A time=00:01:51.73 bitrate=N/A speed=15.5x    frame= 2809 fps=364 q=-0.0 size=N/A time=00:01:57.15 bitrate=N/A speed=15.2x    frame= 2923 fps=355 q=-0.0 size=N/A time=00:02:01.91 bitrate=N/A speed=14.8x    frame= 3349 fps=382 q=-0.0 size=N/A time=00:02:19.68 bitrate=N/A speed=15.9x    frame= 3516 fps=379 q=-0.0 size=N/A time=00:02:26.64 bitrate=N/A speed=15.8x    frame= 3791 fps=387 q=-0.0 size=N/A time=00:02:38.11 bitrate=N/A speed=16.2x    frame= 4134 fps=401 q=-0.0 size=N/A time=00:02:52.42 bitrate=N/A speed=16.7x    frame= 4147 fps=383 q=-0.0 size=N/A time=00:02:52.96 bitrate=N/A speed=  16x    frame= 4612 fps=406 q=-0.0 size=N/A time=00:03:12.35 bitrate=N/A speed=16.9x    frame= 4879 fps=411 q=-0.0 size=N/A time=00:03:23.49 bitrate=N/A speed=17.1x    frame= 4896 fps=395 q=-0.0 size=N/A time=00:03:24.20 bitrate=N/A speed=16.5x    frame= 4896 fps=379 q=-0.0 size=N/A time=00:03:24.20 bitrate=N/A speed=15.8x    frame= 5319 fps=396 q=-0.0 size=N/A time=00:03:41.84 bitrate=N/A speed=16.5x    frame= 5781 fps=415 q=-0.0 size=N/A time=00:04:01.11 bitrate=N/A speed=17.3x    frame= 6180 fps=428 q=-0.0 size=N/A time=00:04:17.75 bitrate=N/A speed=17.8x    frame= 6636 fps=444 q=-0.0 size=N/A time=00:04:36.77 bitrate=N/A speed=18.5x    frame= 7104 fps=459 q=-0.0 size=N/A time=00:04:56.29 bitrate=N/A speed=19.1x    frame= 7604 fps=475 q=-0.0 size=N/A time=00:05:17.15 bitrate=N/A speed=19.8x    frame= 8119 fps=492 q=-0.0 size=N/A time=00:05:38.62 bitrate=N/A speed=20.5x    frame= 8555 fps=502 q=-0.0 size=N/A time=00:05:56.81 bitrate=N/A speed=  21x    frame= 8972 fps=511 q=-0.0 size=N/A time=00:06:14.20 bitrate=N/A speed=21.3x    frame= 9451 fps=523 q=-0.0 size=N/A time=00:06:34.18 bitrate=N/A speed=21.8x    frame= 9961 fps=536 q=-0.0 size=N/A time=00:06:55.45 bitrate=N/A speed=22.3x    frame=10303 fps=539 q=-0.0 size=N/A time=00:07:09.72 bitrate=N/A speed=22.5x    frame=10721 fps=546 q=-0.0 size=N/A time=00:07:27.15 bitrate=N/A speed=22.8x    frame=11092 fps=551 q=-0.0 size=N/A time=00:07:42.62 bitrate=N/A speed=  23x    frame=11520 fps=558 q=-0.0 size=N/A time=00:08:00.48 bitrate=N/A speed=23.3x    frame=11959 fps=565 q=-0.0 size=N/A time=00:08:18.78 bitrate=N/A speed=23.6x    frame=12355 fps=570 q=-0.0 size=N/A time=00:08:35.30 bitrate=N/A speed=23.8x    frame=12806 fps=577 q=-0.0 size=N/A time=00:08:54.11 bitrate=N/A speed=24.1x    frame=13081 fps=576 q=-0.0 size=N/A time=00:09:05.58 bitrate=N/A speed=  24x    frame=13608 fps=586 q=-0.0 size=N/A time=00:09:27.56 bitrate=N/A speed=24.4x    frame=14192 fps=598 q=-0.0 size=N/A time=00:09:51.92 bitrate=N/A speed=24.9x    frame=14440 fps=595 q=-0.0 size=N/A time=00:10:02.26 bitrate=N/A speed=24.8x    frame=14877 fps=600 q=-0.0 size=N/A time=00:10:20.49 bitrate=N/A speed=  25x    frame=15369 fps=608 q=-0.0 size=N/A time=00:10:41.01 bitrate=N/A speed=25.3x    frame=15416 fps=597 q=-0.0 size=N/A time=00:10:42.97 bitrate=N/A speed=24.9x    frame=15880 fps=603 q=-0.0 size=N/A time=00:11:02.32 bitrate=N/A speed=25.2x    frame=16211 fps=604 q=-0.0 size=N/A time=00:11:16.13 bitrate=N/A speed=25.2x    frame=16305 fps=596 q=-0.0 size=N/A time=00:11:20.05 bitrate=N/A speed=24.9x    frame=16305 fps=585 q=-0.0 size=N/A time=00:11:20.05 bitrate=N/A speed=24.4x    frame=16308 fps=574 q=-0.0 size=N/A time=00:11:20.17 bitrate=N/A speed=  24x    frame=16313 fps=564 q=-0.0 size=N/A time=00:11:20.38 bitrate=N/A speed=23.5x    frame=16643 fps=565 q=-0.0 size=N/A time=00:11:34.15 bitrate=N/A speed=23.6x    frame=16791 fps=561 q=-0.0 size=N/A time=00:11:40.32 bitrate=N/A speed=23.4x    frame=17431 fps=572 q=-0.0 size=N/A time=00:12:07.01 bitrate=N/A speed=23.9x    frame=18003 fps=581 q=-0.0 size=N/A time=00:12:30.87 bitrate=N/A speed=24.2x    frame=18533 fps=588 q=-0.0 size=N/A time=00:12:52.98 bitrate=N/A speed=24.5x    frame=18996 fps=593 q=-0.0 size=N/A time=00:13:12.29 bitrate=N/A speed=24.7x    frame=19129 fps=588 q=-0.0 size=N/A time=00:13:17.83 bitrate=N/A speed=24.5x    frame=19629 fps=594 q=-0.0 size=N/A time=00:13:38.69 bitrate=N/A speed=24.8x    frame=20187 fps=602 q=-0.0 size=N/A time=00:14:01.96 bitrate=N/A speed=25.1x    frame=20389 fps=598 q=-0.0 size=N/A time=00:14:10.39 bitrate=N/A speed=  25x    frame=20974 fps=606 q=-0.0 size=N/A time=00:14:34.79 bitrate=N/A speed=25.3x    frame=21306 fps=607 q=-0.0 size=N/A time=00:14:48.63 bitrate=N/A speed=25.3x    frame=21618 fps=607 q=-0.0 size=N/A time=00:15:01.65 bitrate=N/A speed=25.3x    frame=22190 fps=614 q=-0.0 size=N/A time=00:15:25.50 bitrate=N/A speed=25.6x    frame=22503 fps=614 q=-0.0 size=N/A time=00:15:38.56 bitrate=N/A speed=25.6x    frame=22964 fps=618 q=-0.0 size=N/A time=00:15:57.79 bitrate=N/A speed=25.8x    frame=23292 fps=618 q=-0.0 size=N/A time=00:16:11.47 bitrate=N/A speed=25.8x    frame=23520 fps=616 q=-0.0 size=N/A time=00:16:20.98 bitrate=N/A speed=25.7x    frame=23989 fps=620 q=-0.0 size=N/A time=00:16:40.54 bitrate=N/A speed=25.8x    frame=24407 fps=622 q=-0.0 size=N/A time=00:16:57.97 bitrate=N/A speed=  26x    frame=24951 fps=628 q=-0.0 size=N/A time=00:17:20.66 bitrate=N/A speed=26.2x    frame=25362 fps=630 q=-0.0 size=N/A time=00:17:37.80 bitrate=N/A speed=26.3x    frame=25536 fps=626 q=-0.0 size=N/A time=00:17:45.06 bitrate=N/A speed=26.1x    frame=26083 fps=632 q=-0.0 size=N/A time=00:18:07.87 bitrate=N/A speed=26.3x    frame=26481 fps=633 q=-0.0 size=N/A time=00:18:24.47 bitrate=N/A speed=26.4x    frame=26765 fps=632 q=-0.0 size=N/A time=00:18:36.32 bitrate=N/A speed=26.4x    frame=27274 fps=637 q=-0.0 size=N/A time=00:18:57.55 bitrate=N/A speed=26.6x    frame=27493 fps=634 q=-0.0 size=N/A time=00:19:06.68 bitrate=N/A speed=26.5x    frame=27880 fps=636 q=-0.0 size=N/A time=00:19:22.82 bitrate=N/A speed=26.5x    frame=28341 fps=639 q=-0.0 size=N/A time=00:19:42.05 bitrate=N/A speed=26.6x    frame=28414 fps=633 q=-0.0 size=N/A time=00:19:45.10 bitrate=N/A speed=26.4x    frame=28944 fps=637 q=-0.0 size=N/A time=00:20:07.20 bitrate=N/A speed=26.6x    frame=29209 fps=636 q=-0.0 size=N/A time=00:20:18.25 bitrate=N/A speed=26.5x    frame=29369 fps=632 q=-0.0 size=N/A time=00:20:24.93 bitrate=N/A speed=26.4x    frame=29770 fps=634 q=-0.0 size=N/A time=00:20:41.65 bitrate=N/A speed=26.4x    frame=29885 fps=629 q=-0.0 size=N/A time=00:20:46.45 bitrate=N/A speed=26.3x    frame=30257 fps=630 q=-0.0 size=N/A time=00:21:01.96 bitrate=N/A speed=26.3x    frame=30452 fps=628 q=-0.0 size=N/A time=00:21:10.10 bitrate=N/A speed=26.2x    frame=30553 fps=623 q=-0.0 size=N/A time=00:21:14.31 bitrate=N/A speed=  26x    frame=31003 fps=626 q=-0.0 size=N/A time=00:21:33.08 bitrate=N/A speed=26.1x    frame=31284 fps=625 q=-0.0 size=N/A time=00:21:44.80 bitrate=N/A speed=26.1x    frame=31615 fps=625 q=-0.0 size=N/A time=00:21:58.60 bitrate=N/A speed=26.1x    frame=31969 fps=626 q=-0.0 size=N/A time=00:22:13.37 bitrate=N/A speed=26.1x    frame=32109 fps=622 q=-0.0 size=N/A time=00:22:19.21 bitrate=N/A speed=  26x    frame=32345 fps=621 q=-0.0 size=N/A time=00:22:29.05 bitrate=N/A speed=25.9x    frame=32560 fps=619 q=-0.0 size=N/A time=00:22:38.02 bitrate=N/A speed=25.8x    frame=32705 fps=615 q=-0.0 size=N/A time=00:22:44.07 bitrate=N/A speed=25.7x    frame=33008 fps=615 q=-0.0 size=N/A time=00:22:56.70 bitrate=N/A speed=25.6x    frame=33143 fps=612 q=-0.0 size=N/A time=00:23:02.33 bitrate=N/A speed=25.5x    frame=33308 fps=609 q=-0.0 size=N/A time=00:23:09.22 bitrate=N/A speed=25.4x    frame=33591 fps=608 q=-0.0 size=N/A time=00:23:21.02 bitrate=N/A speed=25.4x    frame=33666 fps=604 q=-0.0 size=N/A time=00:23:24.15 bitrate=N/A speed=25.2x    frame=34023 fps=605 q=-0.0 size=N/A time=00:23:39.04 bitrate=N/A speed=25.2x    [Parsed_psnr_10 @ 000001c69d582c40] PSNR y:32.339691 u:42.221919 v:41.042922 average:33.850060 min:3.193044 max:61.844971
[out#0/null @ 000001c69c6e6440] video:14835KiB audio:270008KiB subtitle:0KiB other streams:0KiB global headers:0KiB muxing overhead: unknown
frame=34524 fps=608 q=-0.0 Lsize=N/A time=00:23:59.93 bitrate=N/A speed=25.4x    
